<mxfile modified="2022-10-30T05:22:03.344Z" host="Electron" agent="5.0 (Windows NT 10.0; Win64; x64) AppleWebKit/537.36 (KHTML, like Gecko) draw.io/20.3.0 Chrome/104.0.5112.114 Electron/20.1.3 Safari/537.36" etag="k4bRr7navzaworq55-rV" compressed="false" version="20.3.0" type="device">
  <diagram name="User Context/Decisions/Resource/Users" id="mJ9zh5-XbFA6OxV0q-oO">
    <mxGraphModel dx="782" dy="515" grid="1" gridSize="10" guides="1" tooltips="1" connect="1" arrows="1" fold="1" page="1" pageScale="1" pageWidth="827" pageHeight="1169" math="0" shadow="0">
      <root>
        <mxCell id="ghKAhKklCZQfBLjCrNQq-0" />
        <mxCell id="ghKAhKklCZQfBLjCrNQq-49" value="Diagram" style="" parent="ghKAhKklCZQfBLjCrNQq-0" />
        <mxCell id="ghKAhKklCZQfBLjCrNQq-50" value="Users" style="rounded=0;whiteSpace=wrap;html=1;shadow=0;glass=0;comic=0;strokeColor=#666666;fillColor=#f5f5f5;fontSize=12;align=center;fontColor=#333333;" parent="ghKAhKklCZQfBLjCrNQq-49" vertex="1">
          <mxGeometry x="120" y="200" width="80" height="40" as="geometry" />
        </mxCell>
        <mxCell id="ghKAhKklCZQfBLjCrNQq-51" value="Authenticated&lt;br style=&quot;font-size: 12px;&quot;&gt;Internal" style="rounded=0;whiteSpace=wrap;html=1;shadow=0;glass=0;comic=0;strokeColor=#B3B3B3;fillColor=none;fontSize=12;align=center;" parent="ghKAhKklCZQfBLjCrNQq-49" vertex="1">
          <mxGeometry x="210" y="200" width="80" height="40" as="geometry" />
        </mxCell>
        <mxCell id="ghKAhKklCZQfBLjCrNQq-52" value="Authenticated&lt;br style=&quot;font-size: 12px;&quot;&gt;Partners" style="rounded=0;whiteSpace=wrap;html=1;shadow=0;glass=0;comic=0;strokeColor=#B3B3B3;fillColor=none;fontSize=12;align=center;" parent="ghKAhKklCZQfBLjCrNQq-49" vertex="1">
          <mxGeometry x="300" y="200" width="80" height="40" as="geometry" />
        </mxCell>
        <mxCell id="ghKAhKklCZQfBLjCrNQq-53" value="Authenticated&lt;br style=&quot;font-size: 12px&quot;&gt;Clients" style="rounded=0;whiteSpace=wrap;html=1;shadow=0;glass=0;comic=0;strokeColor=#B3B3B3;fillColor=none;fontSize=12;align=center;" parent="ghKAhKklCZQfBLjCrNQq-49" vertex="1">
          <mxGeometry x="390" y="200" width="80" height="40" as="geometry" />
        </mxCell>
        <mxCell id="ghKAhKklCZQfBLjCrNQq-54" value="Authenticated&lt;br style=&quot;font-size: 12px;&quot;&gt;Public" style="rounded=0;whiteSpace=wrap;html=1;shadow=0;glass=0;comic=0;strokeColor=#B3B3B3;fillColor=none;fontSize=12;align=center;" parent="ghKAhKklCZQfBLjCrNQq-49" vertex="1">
          <mxGeometry x="480" y="200" width="80" height="40" as="geometry" />
        </mxCell>
        <mxCell id="ghKAhKklCZQfBLjCrNQq-62" value="User Grouping" style="rounded=0;whiteSpace=wrap;html=1;shadow=0;glass=0;comic=0;strokeColor=#666666;fillColor=#f5f5f5;fontSize=12;align=center;fontColor=#333333;" parent="ghKAhKklCZQfBLjCrNQq-49" vertex="1">
          <mxGeometry x="120" y="500" width="80" height="40" as="geometry" />
        </mxCell>
        <mxCell id="ghKAhKklCZQfBLjCrNQq-63" value="Single Users" style="rounded=0;whiteSpace=wrap;html=1;shadow=0;glass=0;comic=0;strokeColor=#B3B3B3;fillColor=none;fontSize=12;align=center;" parent="ghKAhKklCZQfBLjCrNQq-49" vertex="1">
          <mxGeometry x="210" y="500" width="80" height="40" as="geometry" />
        </mxCell>
        <mxCell id="ghKAhKklCZQfBLjCrNQq-64" value="Separated&lt;br style=&quot;font-size: 12px;&quot;&gt;Organisations" style="rounded=0;whiteSpace=wrap;html=1;shadow=0;glass=0;comic=0;strokeColor=#B3B3B3;fillColor=none;fontSize=12;align=center;" parent="ghKAhKklCZQfBLjCrNQq-49" vertex="1">
          <mxGeometry x="480" y="500" width="80" height="40" as="geometry" />
        </mxCell>
        <mxCell id="ghKAhKklCZQfBLjCrNQq-65" value="Community of Users" style="rounded=0;whiteSpace=wrap;html=1;shadow=0;glass=0;comic=0;strokeColor=#B3B3B3;fillColor=none;fontSize=12;align=center;" parent="ghKAhKklCZQfBLjCrNQq-49" vertex="1">
          <mxGeometry x="300" y="500" width="80" height="40" as="geometry" />
        </mxCell>
        <mxCell id="ghKAhKklCZQfBLjCrNQq-66" value="Community of Group Users&lt;br style=&quot;font-size: 12px;&quot;&gt;" style="rounded=0;whiteSpace=wrap;html=1;shadow=0;glass=0;comic=0;strokeColor=#B3B3B3;fillColor=none;fontSize=12;align=center;" parent="ghKAhKklCZQfBLjCrNQq-49" vertex="1">
          <mxGeometry x="390" y="500" width="80" height="40" as="geometry" />
        </mxCell>
        <mxCell id="ghKAhKklCZQfBLjCrNQq-67" value="User&lt;br style=&quot;font-size: 12px;&quot;&gt;Provisioning" style="rounded=0;whiteSpace=wrap;html=1;shadow=0;glass=0;comic=0;strokeColor=#666666;fillColor=#f5f5f5;fontSize=12;align=center;fontColor=#333333;" parent="ghKAhKklCZQfBLjCrNQq-49" vertex="1">
          <mxGeometry x="120" y="450" width="80" height="40" as="geometry" />
        </mxCell>
        <mxCell id="ghKAhKklCZQfBLjCrNQq-68" value="Central Manual&lt;br style=&quot;font-size: 12px;&quot;&gt;Provisioning" style="rounded=0;whiteSpace=wrap;html=1;shadow=0;glass=0;comic=0;strokeColor=#B3B3B3;fillColor=none;fontSize=12;align=center;" parent="ghKAhKklCZQfBLjCrNQq-49" vertex="1">
          <mxGeometry x="210" y="450" width="80" height="40" as="geometry" />
        </mxCell>
        <mxCell id="ghKAhKklCZQfBLjCrNQq-69" value="Self &lt;br style=&quot;font-size: 12px;&quot;&gt;Signup" style="rounded=0;whiteSpace=wrap;html=1;shadow=0;glass=0;comic=0;strokeColor=#B3B3B3;fillColor=none;fontSize=12;align=center;" parent="ghKAhKklCZQfBLjCrNQq-49" vertex="1">
          <mxGeometry x="390" y="450" width="80" height="40" as="geometry" />
        </mxCell>
        <mxCell id="ghKAhKklCZQfBLjCrNQq-70" value="By Invitation" style="rounded=0;whiteSpace=wrap;html=1;shadow=0;glass=0;comic=0;strokeColor=#B3B3B3;fillColor=none;fontSize=12;align=center;" parent="ghKAhKklCZQfBLjCrNQq-49" vertex="1">
          <mxGeometry x="480" y="450" width="80" height="40" as="geometry" />
        </mxCell>
        <mxCell id="ghKAhKklCZQfBLjCrNQq-71" value="Central Automated&lt;br style=&quot;font-size: 12px;&quot;&gt;Provisioning" style="rounded=0;whiteSpace=wrap;html=1;shadow=0;glass=0;comic=0;strokeColor=#B3B3B3;fillColor=none;fontSize=12;align=center;" parent="ghKAhKklCZQfBLjCrNQq-49" vertex="1">
          <mxGeometry x="300" y="450" width="80" height="40" as="geometry" />
        </mxCell>
        <mxCell id="ghKAhKklCZQfBLjCrNQq-72" value="User Delegation" style="rounded=0;whiteSpace=wrap;html=1;shadow=0;glass=0;comic=0;strokeColor=#666666;fillColor=#f5f5f5;fontSize=12;align=center;fontColor=#333333;" parent="ghKAhKklCZQfBLjCrNQq-49" vertex="1">
          <mxGeometry x="120" y="600" width="80" height="40" as="geometry" />
        </mxCell>
        <mxCell id="ghKAhKklCZQfBLjCrNQq-73" value="No" style="rounded=0;whiteSpace=wrap;html=1;shadow=0;glass=0;comic=0;strokeColor=#B3B3B3;fillColor=none;fontSize=12;align=center;" parent="ghKAhKklCZQfBLjCrNQq-49" vertex="1">
          <mxGeometry x="210" y="600" width="80" height="40" as="geometry" />
        </mxCell>
        <mxCell id="ghKAhKklCZQfBLjCrNQq-74" value="Yes" style="rounded=0;whiteSpace=wrap;html=1;shadow=0;glass=0;comic=0;strokeColor=#B3B3B3;fillColor=none;fontSize=12;align=center;" parent="ghKAhKklCZQfBLjCrNQq-49" vertex="1">
          <mxGeometry x="300" y="600" width="80" height="40" as="geometry" />
        </mxCell>
        <mxCell id="ghKAhKklCZQfBLjCrNQq-119" value="User Training" style="rounded=0;whiteSpace=wrap;html=1;shadow=0;glass=0;comic=0;strokeColor=#666666;fillColor=#f5f5f5;fontSize=12;align=center;fontColor=#333333;" parent="ghKAhKklCZQfBLjCrNQq-49" vertex="1">
          <mxGeometry x="120" y="400" width="80" height="40" as="geometry" />
        </mxCell>
        <mxCell id="ghKAhKklCZQfBLjCrNQq-120" value="Required" style="rounded=0;whiteSpace=wrap;html=1;shadow=0;glass=0;comic=0;strokeColor=#B3B3B3;fillColor=none;fontSize=12;align=center;" parent="ghKAhKklCZQfBLjCrNQq-49" vertex="1">
          <mxGeometry x="210" y="400" width="80" height="40" as="geometry" />
        </mxCell>
        <mxCell id="ghKAhKklCZQfBLjCrNQq-121" value="Not Required.&lt;br&gt;In-System Help" style="rounded=0;whiteSpace=wrap;html=1;shadow=0;glass=0;comic=0;strokeColor=#B3B3B3;fillColor=none;fontSize=12;align=center;" parent="ghKAhKklCZQfBLjCrNQq-49" vertex="1">
          <mxGeometry x="390" y="400" width="80" height="40" as="geometry" />
        </mxCell>
        <mxCell id="ghKAhKklCZQfBLjCrNQq-122" value="Not Required.&lt;br&gt;Community Supported" style="rounded=0;whiteSpace=wrap;html=1;shadow=0;glass=0;comic=0;strokeColor=#B3B3B3;fillColor=none;fontSize=12;align=center;" parent="ghKAhKklCZQfBLjCrNQq-49" vertex="1">
          <mxGeometry x="300" y="400" width="80" height="40" as="geometry" />
        </mxCell>
        <mxCell id="ghKAhKklCZQfBLjCrNQq-123" value="User Age" style="rounded=0;whiteSpace=wrap;html=1;shadow=0;glass=0;comic=0;strokeColor=#666666;fillColor=#f5f5f5;fontSize=12;align=center;fontColor=#333333;" parent="ghKAhKklCZQfBLjCrNQq-49" vertex="1">
          <mxGeometry x="120" y="250" width="80" height="40" as="geometry" />
        </mxCell>
        <mxCell id="ghKAhKklCZQfBLjCrNQq-124" value="User Health" style="rounded=0;whiteSpace=wrap;html=1;shadow=0;glass=0;comic=0;strokeColor=#666666;fillColor=#f5f5f5;fontSize=12;align=center;fontColor=#333333;" parent="ghKAhKklCZQfBLjCrNQq-49" vertex="1">
          <mxGeometry x="120" y="300" width="80" height="40" as="geometry" />
        </mxCell>
        <mxCell id="ghKAhKklCZQfBLjCrNQq-125" value="No Disabilities" style="rounded=0;whiteSpace=wrap;html=1;shadow=0;glass=0;comic=0;strokeColor=#B3B3B3;fillColor=none;fontSize=12;align=center;" parent="ghKAhKklCZQfBLjCrNQq-49" vertex="1">
          <mxGeometry x="210" y="300" width="80" height="40" as="geometry" />
        </mxCell>
        <mxCell id="ghKAhKklCZQfBLjCrNQq-126" value="Hearing Impaired" style="rounded=0;whiteSpace=wrap;html=1;shadow=0;glass=0;comic=0;strokeColor=#B3B3B3;fillColor=none;fontSize=12;align=center;" parent="ghKAhKklCZQfBLjCrNQq-49" vertex="1">
          <mxGeometry x="300" y="300" width="80" height="40" as="geometry" />
        </mxCell>
        <mxCell id="ghKAhKklCZQfBLjCrNQq-127" value="Visually Impaired" style="rounded=0;whiteSpace=wrap;html=1;shadow=0;glass=0;comic=0;strokeColor=#B3B3B3;fillColor=none;fontSize=12;align=center;" parent="ghKAhKklCZQfBLjCrNQq-49" vertex="1">
          <mxGeometry x="390" y="300" width="80" height="40" as="geometry" />
        </mxCell>
        <mxCell id="ghKAhKklCZQfBLjCrNQq-128" value="Physically Impaired" style="rounded=0;whiteSpace=wrap;html=1;shadow=0;glass=0;comic=0;strokeColor=#B3B3B3;fillColor=none;fontSize=12;align=center;" parent="ghKAhKklCZQfBLjCrNQq-49" vertex="1">
          <mxGeometry x="480" y="300" width="80" height="40" as="geometry" />
        </mxCell>
        <mxCell id="ghKAhKklCZQfBLjCrNQq-129" value="Mentally Impaired" style="rounded=0;whiteSpace=wrap;html=1;shadow=0;glass=0;comic=0;strokeColor=#B3B3B3;fillColor=none;fontSize=12;align=center;" parent="ghKAhKklCZQfBLjCrNQq-49" vertex="1">
          <mxGeometry x="570" y="300" width="80" height="40" as="geometry" />
        </mxCell>
        <mxCell id="ghKAhKklCZQfBLjCrNQq-131" value="Preschool" style="rounded=0;whiteSpace=wrap;html=1;shadow=0;glass=0;comic=0;strokeColor=#B3B3B3;fillColor=none;fontSize=12;align=center;" parent="ghKAhKklCZQfBLjCrNQq-49" vertex="1">
          <mxGeometry x="210" y="250" width="80" height="40" as="geometry" />
        </mxCell>
        <mxCell id="ghKAhKklCZQfBLjCrNQq-132" value="Intermediate" style="rounded=0;whiteSpace=wrap;html=1;shadow=0;glass=0;comic=0;strokeColor=#B3B3B3;fillColor=none;fontSize=12;align=center;" parent="ghKAhKklCZQfBLjCrNQq-49" vertex="1">
          <mxGeometry x="300" y="250" width="80" height="40" as="geometry" />
        </mxCell>
        <mxCell id="ghKAhKklCZQfBLjCrNQq-133" value="Secondary" style="rounded=0;whiteSpace=wrap;html=1;shadow=0;glass=0;comic=0;strokeColor=#B3B3B3;fillColor=none;fontSize=12;align=center;" parent="ghKAhKklCZQfBLjCrNQq-49" vertex="1">
          <mxGeometry x="390" y="250" width="80" height="40" as="geometry" />
        </mxCell>
        <mxCell id="ghKAhKklCZQfBLjCrNQq-134" value="Young Adult" style="rounded=0;whiteSpace=wrap;html=1;shadow=0;glass=0;comic=0;strokeColor=#B3B3B3;fillColor=none;fontSize=12;align=center;" parent="ghKAhKklCZQfBLjCrNQq-49" vertex="1">
          <mxGeometry x="480" y="250" width="80" height="40" as="geometry" />
        </mxCell>
        <mxCell id="ghKAhKklCZQfBLjCrNQq-135" value="Aging Adult" style="rounded=0;whiteSpace=wrap;html=1;shadow=0;glass=0;comic=0;strokeColor=#B3B3B3;fillColor=none;fontSize=12;align=center;" parent="ghKAhKklCZQfBLjCrNQq-49" vertex="1">
          <mxGeometry x="570" y="250" width="80" height="40" as="geometry" />
        </mxCell>
        <mxCell id="ghKAhKklCZQfBLjCrNQq-136" value="User Digital Ability" style="rounded=0;whiteSpace=wrap;html=1;shadow=0;glass=0;comic=0;strokeColor=#666666;fillColor=#f5f5f5;fontSize=12;align=center;fontColor=#333333;" parent="ghKAhKklCZQfBLjCrNQq-49" vertex="1">
          <mxGeometry x="120" y="350" width="80" height="40" as="geometry" />
        </mxCell>
        <mxCell id="ghKAhKklCZQfBLjCrNQq-137" value="Expert" style="rounded=0;whiteSpace=wrap;html=1;shadow=0;glass=0;comic=0;strokeColor=#B3B3B3;fillColor=none;fontSize=12;align=center;" parent="ghKAhKklCZQfBLjCrNQq-49" vertex="1">
          <mxGeometry x="210" y="350" width="80" height="40" as="geometry" />
        </mxCell>
        <mxCell id="ghKAhKklCZQfBLjCrNQq-138" value="Proficient" style="rounded=0;whiteSpace=wrap;html=1;shadow=0;glass=0;comic=0;strokeColor=#B3B3B3;fillColor=none;fontSize=12;align=center;" parent="ghKAhKklCZQfBLjCrNQq-49" vertex="1">
          <mxGeometry x="300" y="350" width="80" height="40" as="geometry" />
        </mxCell>
        <mxCell id="ghKAhKklCZQfBLjCrNQq-139" value="Average" style="rounded=0;whiteSpace=wrap;html=1;shadow=0;glass=0;comic=0;strokeColor=#B3B3B3;fillColor=none;fontSize=12;align=center;" parent="ghKAhKklCZQfBLjCrNQq-49" vertex="1">
          <mxGeometry x="390" y="350" width="80" height="40" as="geometry" />
        </mxCell>
        <mxCell id="ghKAhKklCZQfBLjCrNQq-140" value="Minimal" style="rounded=0;whiteSpace=wrap;html=1;shadow=0;glass=0;comic=0;strokeColor=#B3B3B3;fillColor=none;fontSize=12;align=center;" parent="ghKAhKklCZQfBLjCrNQq-49" vertex="1">
          <mxGeometry x="480" y="350" width="80" height="40" as="geometry" />
        </mxCell>
        <mxCell id="ghKAhKklCZQfBLjCrNQq-141" value="None Required" style="rounded=0;whiteSpace=wrap;html=1;shadow=0;glass=0;comic=0;strokeColor=#B3B3B3;fillColor=none;fontSize=12;align=center;" parent="ghKAhKklCZQfBLjCrNQq-49" vertex="1">
          <mxGeometry x="570" y="350" width="80" height="40" as="geometry" />
        </mxCell>
        <mxCell id="ghKAhKklCZQfBLjCrNQq-60" value="Anonymous&lt;br style=&quot;font-size: 12px;&quot;&gt;Public" style="rounded=0;whiteSpace=wrap;html=1;shadow=0;glass=0;comic=0;strokeColor=#B3B3B3;fillColor=none;fontSize=12;align=center;" parent="ghKAhKklCZQfBLjCrNQq-49" vertex="1">
          <mxGeometry x="570" y="200" width="80" height="40" as="geometry" />
        </mxCell>
        <mxCell id="DiHGMrEC9Iwcs7OLFbUN-0" value="More opportunities" style="endArrow=classic;html=1;dashed=1;labelBackgroundColor=none;strokeColor=#999999;fontFamily=Helvetica;fontSize=12;fontColor=#666666;" parent="ghKAhKklCZQfBLjCrNQq-49" edge="1">
          <mxGeometry x="-0.0948" y="10" width="50" height="50" relative="1" as="geometry">
            <mxPoint x="210" y="180" as="sourcePoint" />
            <mxPoint x="680" y="180" as="targetPoint" />
            <mxPoint as="offset" />
          </mxGeometry>
        </mxCell>
        <mxCell id="ghKAhKklCZQfBLjCrNQq-159" value="User-Discoverability&lt;br&gt;" style="rounded=0;whiteSpace=wrap;html=1;shadow=0;glass=0;comic=0;strokeColor=#666666;fillColor=#f5f5f5;fontSize=10;align=center;fontColor=#333333;" parent="ghKAhKklCZQfBLjCrNQq-49" vertex="1">
          <mxGeometry x="120" y="550" width="80" height="40" as="geometry" />
        </mxCell>
        <mxCell id="ghKAhKklCZQfBLjCrNQq-161" value="All System" style="rounded=0;whiteSpace=wrap;html=1;shadow=0;glass=0;comic=0;strokeColor=#B3B3B3;fillColor=none;fontSize=12;align=center;" parent="ghKAhKklCZQfBLjCrNQq-49" vertex="1">
          <mxGeometry x="300" y="550" width="80" height="40" as="geometry" />
        </mxCell>
        <mxCell id="ghKAhKklCZQfBLjCrNQq-162" value="Same Organisation&lt;br&gt;Members" style="rounded=0;whiteSpace=wrap;html=1;shadow=0;glass=0;comic=0;strokeColor=#B3B3B3;fillColor=none;fontSize=12;align=center;" parent="ghKAhKklCZQfBLjCrNQq-49" vertex="1">
          <mxGeometry x="390" y="550" width="80" height="40" as="geometry" />
        </mxCell>
        <mxCell id="ghKAhKklCZQfBLjCrNQq-163" value="Same Groups Only" style="rounded=0;whiteSpace=wrap;html=1;shadow=0;glass=0;comic=0;strokeColor=#B3B3B3;fillColor=none;fontSize=12;align=center;" parent="ghKAhKklCZQfBLjCrNQq-49" vertex="1">
          <mxGeometry x="480" y="550" width="80" height="40" as="geometry" />
        </mxCell>
        <mxCell id="ghKAhKklCZQfBLjCrNQq-164" value="Same Base Group" style="rounded=0;whiteSpace=wrap;html=1;shadow=0;glass=0;comic=0;strokeColor=#B3B3B3;fillColor=none;fontSize=12;align=center;" parent="ghKAhKklCZQfBLjCrNQq-49" vertex="1">
          <mxGeometry x="570" y="550" width="80" height="40" as="geometry" />
        </mxCell>
        <mxCell id="E8dD4HR2qQex3XuOb9kH-0" value="Public" style="rounded=0;whiteSpace=wrap;html=1;shadow=0;glass=0;comic=0;strokeColor=#B3B3B3;fillColor=none;fontSize=12;align=center;" vertex="1" parent="ghKAhKklCZQfBLjCrNQq-49">
          <mxGeometry x="210" y="550" width="80" height="40" as="geometry" />
        </mxCell>
        <mxCell id="sdqEeu79rnzN42n11xie-3" value="Forbidden" style="" parent="ghKAhKklCZQfBLjCrNQq-0" visible="0" />
        <mxCell id="sdqEeu79rnzN42n11xie-2" value="" style="shape=image;html=1;verticalAlign=top;verticalLabelPosition=bottom;labelBackgroundColor=#ffffff;imageAspect=0;aspect=fixed;image=https://cdn4.iconfinder.com/data/icons/feather/24/x-128.png;opacity=30;" parent="sdqEeu79rnzN42n11xie-3" vertex="1">
          <mxGeometry x="230" y="350" width="40" height="40" as="geometry" />
        </mxCell>
        <mxCell id="sdqEeu79rnzN42n11xie-0" value="" style="shape=image;html=1;verticalAlign=top;verticalLabelPosition=bottom;labelBackgroundColor=#ffffff;imageAspect=0;aspect=fixed;image=https://cdn4.iconfinder.com/data/icons/feather/24/x-128.png;opacity=30;" parent="sdqEeu79rnzN42n11xie-3" vertex="1">
          <mxGeometry x="230" y="550.67" width="40" height="40" as="geometry" />
        </mxCell>
        <mxCell id="ghKAhKklCZQfBLjCrNQq-158" value="Overlays" style="" parent="ghKAhKklCZQfBLjCrNQq-0" visible="0" />
        <mxCell id="ghKAhKklCZQfBLjCrNQq-179" value="" style="rounded=0;whiteSpace=wrap;html=1;shadow=0;glass=0;comic=0;strokeColor=#000000;fillColor=#E6E6E6;fontSize=10;align=center;strokeWidth=6;opacity=30;" parent="ghKAhKklCZQfBLjCrNQq-158" vertex="1">
          <mxGeometry x="300" y="250" width="80" height="40" as="geometry" />
        </mxCell>
        <mxCell id="ghKAhKklCZQfBLjCrNQq-180" value="" style="rounded=0;whiteSpace=wrap;html=1;shadow=0;glass=0;comic=0;strokeColor=#000000;fillColor=#E6E6E6;fontSize=10;align=center;strokeWidth=6;opacity=30;" parent="ghKAhKklCZQfBLjCrNQq-158" vertex="1">
          <mxGeometry x="390" y="250" width="80" height="40" as="geometry" />
        </mxCell>
        <mxCell id="ghKAhKklCZQfBLjCrNQq-181" value="" style="rounded=0;whiteSpace=wrap;html=1;shadow=0;glass=0;comic=0;strokeColor=#000000;fillColor=#E6E6E6;fontSize=10;align=center;strokeWidth=6;opacity=30;" parent="ghKAhKklCZQfBLjCrNQq-158" vertex="1">
          <mxGeometry x="480" y="250" width="80" height="40" as="geometry" />
        </mxCell>
        <mxCell id="ghKAhKklCZQfBLjCrNQq-182" value="" style="rounded=0;whiteSpace=wrap;html=1;shadow=0;glass=0;comic=0;strokeColor=#000000;fillColor=#E6E6E6;fontSize=10;align=center;strokeWidth=6;opacity=30;" parent="ghKAhKklCZQfBLjCrNQq-158" vertex="1">
          <mxGeometry x="570" y="250" width="80" height="40" as="geometry" />
        </mxCell>
        <mxCell id="ghKAhKklCZQfBLjCrNQq-183" value="" style="rounded=0;whiteSpace=wrap;html=1;shadow=0;glass=0;comic=0;strokeColor=#000000;fillColor=#E6E6E6;fontSize=10;align=center;strokeWidth=6;opacity=30;" parent="ghKAhKklCZQfBLjCrNQq-158" vertex="1">
          <mxGeometry x="300" y="300" width="80" height="40" as="geometry" />
        </mxCell>
        <mxCell id="ghKAhKklCZQfBLjCrNQq-184" value="" style="rounded=0;whiteSpace=wrap;html=1;shadow=0;glass=0;comic=0;strokeColor=#000000;fillColor=#E6E6E6;fontSize=10;align=center;strokeWidth=6;opacity=30;" parent="ghKAhKklCZQfBLjCrNQq-158" vertex="1">
          <mxGeometry x="390" y="300" width="80" height="40" as="geometry" />
        </mxCell>
        <mxCell id="ghKAhKklCZQfBLjCrNQq-185" value="" style="rounded=0;whiteSpace=wrap;html=1;shadow=0;glass=0;comic=0;strokeColor=#000000;fillColor=#E6E6E6;fontSize=10;align=center;strokeWidth=6;opacity=30;" parent="ghKAhKklCZQfBLjCrNQq-158" vertex="1">
          <mxGeometry x="480" y="350" width="80" height="40" as="geometry" />
        </mxCell>
        <mxCell id="ghKAhKklCZQfBLjCrNQq-186" value="" style="rounded=0;whiteSpace=wrap;html=1;shadow=0;glass=0;comic=0;strokeColor=#000000;fillColor=#E6E6E6;fontSize=10;align=center;strokeWidth=6;opacity=30;" parent="ghKAhKklCZQfBLjCrNQq-158" vertex="1">
          <mxGeometry x="390" y="350" width="80" height="40" as="geometry" />
        </mxCell>
        <mxCell id="ghKAhKklCZQfBLjCrNQq-187" value="" style="rounded=0;whiteSpace=wrap;html=1;shadow=0;glass=0;comic=0;strokeColor=#000000;fillColor=#E6E6E6;fontSize=10;align=center;strokeWidth=6;opacity=30;" parent="ghKAhKklCZQfBLjCrNQq-158" vertex="1">
          <mxGeometry x="300" y="400" width="80" height="40" as="geometry" />
        </mxCell>
        <mxCell id="ghKAhKklCZQfBLjCrNQq-188" value="" style="rounded=0;whiteSpace=wrap;html=1;shadow=0;glass=0;comic=0;strokeColor=#000000;fillColor=#E6E6E6;fontSize=10;align=center;strokeWidth=6;opacity=30;" parent="ghKAhKklCZQfBLjCrNQq-158" vertex="1">
          <mxGeometry x="390" y="450" width="80" height="40" as="geometry" />
        </mxCell>
        <mxCell id="ghKAhKklCZQfBLjCrNQq-189" value="" style="rounded=0;whiteSpace=wrap;html=1;shadow=0;glass=0;comic=0;strokeColor=#000000;fillColor=#E6E6E6;fontSize=10;align=center;strokeWidth=6;opacity=30;" parent="ghKAhKklCZQfBLjCrNQq-158" vertex="1">
          <mxGeometry x="480" y="450" width="80" height="40" as="geometry" />
        </mxCell>
        <mxCell id="ghKAhKklCZQfBLjCrNQq-190" value="" style="rounded=0;whiteSpace=wrap;html=1;shadow=0;glass=0;comic=0;strokeColor=#000000;fillColor=#E6E6E6;fontSize=10;align=center;strokeWidth=6;opacity=30;" parent="ghKAhKklCZQfBLjCrNQq-158" vertex="1">
          <mxGeometry x="300" y="450" width="80" height="40" as="geometry" />
        </mxCell>
        <mxCell id="ghKAhKklCZQfBLjCrNQq-191" value="" style="rounded=0;whiteSpace=wrap;html=1;shadow=0;glass=0;comic=0;strokeColor=#000000;fillColor=#E6E6E6;fontSize=10;align=center;strokeWidth=6;opacity=30;" parent="ghKAhKklCZQfBLjCrNQq-158" vertex="1">
          <mxGeometry x="300" y="500" width="80" height="40" as="geometry" />
        </mxCell>
        <mxCell id="ghKAhKklCZQfBLjCrNQq-192" value="" style="rounded=0;whiteSpace=wrap;html=1;shadow=0;glass=0;comic=0;strokeColor=#000000;fillColor=#E6E6E6;fontSize=10;align=center;strokeWidth=6;opacity=30;" parent="ghKAhKklCZQfBLjCrNQq-158" vertex="1">
          <mxGeometry x="480" y="500" width="80" height="40" as="geometry" />
        </mxCell>
        <mxCell id="ghKAhKklCZQfBLjCrNQq-193" value="" style="rounded=0;whiteSpace=wrap;html=1;shadow=0;glass=0;comic=0;strokeColor=#000000;fillColor=#E6E6E6;fontSize=10;align=center;strokeWidth=6;opacity=30;" parent="ghKAhKklCZQfBLjCrNQq-158" vertex="1">
          <mxGeometry x="210" y="500" width="80" height="40" as="geometry" />
        </mxCell>
        <mxCell id="ghKAhKklCZQfBLjCrNQq-194" value="" style="rounded=0;whiteSpace=wrap;html=1;shadow=0;glass=0;comic=0;strokeColor=#000000;fillColor=#E6E6E6;fontSize=10;align=center;strokeWidth=6;opacity=30;" parent="ghKAhKklCZQfBLjCrNQq-158" vertex="1">
          <mxGeometry x="390" y="500" width="80" height="40" as="geometry" />
        </mxCell>
        <mxCell id="ghKAhKklCZQfBLjCrNQq-197" value="" style="rounded=0;whiteSpace=wrap;html=1;shadow=0;glass=0;comic=0;strokeColor=#000000;fillColor=#E6E6E6;fontSize=10;align=center;strokeWidth=6;opacity=30;" parent="ghKAhKklCZQfBLjCrNQq-158" vertex="1">
          <mxGeometry x="300" y="600" width="80" height="40" as="geometry" />
        </mxCell>
        <mxCell id="ghKAhKklCZQfBLjCrNQq-44" value="" style="rounded=0;whiteSpace=wrap;html=1;shadow=0;glass=0;comic=0;strokeColor=#000000;fillColor=#E6E6E6;fontSize=10;align=center;strokeWidth=6;opacity=30;" parent="ghKAhKklCZQfBLjCrNQq-158" vertex="1">
          <mxGeometry x="570" y="200" width="80" height="40" as="geometry" />
        </mxCell>
        <mxCell id="DiHGMrEC9Iwcs7OLFbUN-1" value="" style="rounded=0;whiteSpace=wrap;html=1;shadow=0;glass=0;comic=0;strokeColor=#000000;fillColor=#E6E6E6;fontSize=10;align=center;strokeWidth=6;opacity=30;" parent="ghKAhKklCZQfBLjCrNQq-158" vertex="1">
          <mxGeometry x="480" y="200" width="80" height="40" as="geometry" />
        </mxCell>
        <mxCell id="DiHGMrEC9Iwcs7OLFbUN-2" value="" style="rounded=0;whiteSpace=wrap;html=1;shadow=0;glass=0;comic=0;strokeColor=#000000;fillColor=#E6E6E6;fontSize=10;align=center;strokeWidth=6;opacity=30;" parent="ghKAhKklCZQfBLjCrNQq-158" vertex="1">
          <mxGeometry x="390" y="200" width="80" height="40" as="geometry" />
        </mxCell>
        <mxCell id="DiHGMrEC9Iwcs7OLFbUN-3" value="" style="rounded=0;whiteSpace=wrap;html=1;shadow=0;glass=0;comic=0;strokeColor=#000000;fillColor=#E6E6E6;fontSize=10;align=center;strokeWidth=6;opacity=30;" parent="ghKAhKklCZQfBLjCrNQq-158" vertex="1">
          <mxGeometry x="300" y="200" width="80" height="40" as="geometry" />
        </mxCell>
        <mxCell id="DiHGMrEC9Iwcs7OLFbUN-4" value="" style="rounded=0;whiteSpace=wrap;html=1;shadow=0;glass=0;comic=0;strokeColor=#000000;fillColor=#E6E6E6;fontSize=10;align=center;strokeWidth=6;opacity=30;" parent="ghKAhKklCZQfBLjCrNQq-158" vertex="1">
          <mxGeometry x="210" y="200" width="80" height="40" as="geometry" />
        </mxCell>
        <mxCell id="ghKAhKklCZQfBLjCrNQq-195" value="" style="rounded=0;whiteSpace=wrap;html=1;shadow=0;glass=0;comic=0;strokeColor=#000000;fillColor=#E6E6E6;fontSize=10;align=center;strokeWidth=6;opacity=30;" parent="ghKAhKklCZQfBLjCrNQq-158" vertex="1">
          <mxGeometry x="570" y="550" width="80" height="40" as="geometry" />
        </mxCell>
        <mxCell id="ghKAhKklCZQfBLjCrNQq-196" value="" style="rounded=0;whiteSpace=wrap;html=1;shadow=0;glass=0;comic=0;strokeColor=#000000;fillColor=#E6E6E6;fontSize=10;align=center;strokeWidth=6;opacity=30;" parent="ghKAhKklCZQfBLjCrNQq-158" vertex="1">
          <mxGeometry x="390" y="550" width="80" height="40" as="geometry" />
        </mxCell>
        <mxCell id="wD3OdH63fC2kGNWur0zw-0" value="Title/Diagram" parent="ghKAhKklCZQfBLjCrNQq-0" />
        <mxCell id="wD3OdH63fC2kGNWur0zw-1" value="&lt;font style=&quot;font-size: 12px&quot;&gt;Diagram: User Context - Decisions - User Classification&amp;nbsp;&lt;/font&gt;" style="text;strokeColor=none;fillColor=none;html=1;fontSize=10;fontStyle=2;verticalAlign=middle;align=left;shadow=0;glass=0;comic=0;opacity=30;fontColor=#808080;" parent="wD3OdH63fC2kGNWur0zw-0" vertex="1">
          <mxGeometry x="120" y="660" width="520" height="20" as="geometry" />
        </mxCell>
      </root>
    </mxGraphModel>
  </diagram>
</mxfile>
